<svg id="Layer_1" data-name="Layer 1" xmlns="http://www.w3.org/2000/svg" viewBox="0 0 336.72 336.72"><defs><style>.cls-1{fill:#e9c266;}.cls-2{fill:#292010;}.cls-10,.cls-11,.cls-12,.cls-13,.cls-14,.cls-15,.cls-16,.cls-17,.cls-18,.cls-19,.cls-2,.cls-20,.cls-21,.cls-22,.cls-23,.cls-24,.cls-25,.cls-26,.cls-27,.cls-28,.cls-29,.cls-3,.cls-30,.cls-31,.cls-32,.cls-33,.cls-34,.cls-35,.cls-4,.cls-5,.cls-6,.cls-7,.cls-8,.cls-9{stroke:#231f20;stroke-miterlimit:10;}.cls-19,.cls-2,.cls-20,.cls-21,.cls-22,.cls-23,.cls-3,.cls-4,.cls-5{stroke-width:0.98px;}.cls-3{fill:#4b3917;}.cls-4{fill:#8a6829;}.cls-5,.cls-6{fill:#674d21;}.cls-6{stroke-width:1.01px;}.cls-7{fill:#272011;}.cls-10,.cls-11,.cls-12,.cls-13,.cls-14,.cls-15,.cls-16,.cls-17,.cls-18,.cls-7,.cls-8,.cls-9{stroke-width:1px;}.cls-8{fill:#103f3a;}.cls-9{fill:#24b297;}.cls-10{fill:#22b399;}.cls-11{fill:#8a6629;}.cls-12{fill:#694d1e;}.cls-13{fill:#47381a;}.cls-14{fill:#44bda5;}.cls-15{fill:#4c3719;}.cls-16{fill:#41beb0;}.cls-17{fill:#43bda7;}.cls-18{fill:#684e1f;}.cls-19{fill:#0d4033;}.cls-20,.cls-24,.cls-27,.cls-35{fill:#0f4038;}.cls-21,.cls-28{fill:#0c3f36;}.cls-22{fill:#3fbda8;}.cls-23{fill:#1fb397;}.cls-24,.cls-25,.cls-26,.cls-30,.cls-31,.cls-32,.cls-33,.cls-34{stroke-width:1px;}.cls-25{fill:#20b299;}.cls-26{fill:#45bea7;}.cls-27,.cls-28,.cls-29{stroke-width:1px;}.cls-29{fill:#6ac7ba;}.cls-30{fill:#41bda7;}.cls-31{fill:#26b399;}.cls-32{fill:#69c6b8;}.cls-33{fill:#42bda5;}.cls-34{fill:#26b197;}.cls-35{stroke-width:1.02px;}</style></defs><rect class="cls-1" width="336.72" height="336.72"/><rect class="cls-2" x="183.47" y="120.28" width="15.02" height="16.25"/><rect class="cls-3" x="183.47" y="152.6" width="15.02" height="15.24"/><rect class="cls-4" x="183.47" y="136.53" width="15.02" height="16.06"/><rect class="cls-2" x="167.63" y="136.53" width="15.84" height="16.06"/><rect class="cls-3" x="198.49" y="136.53" width="16.65" height="16.06"/><rect class="cls-2" x="152.59" y="152.6" width="15.02" height="15.46"/><rect class="cls-3" x="152.59" y="184.12" width="15.02" height="16.04"/><rect class="cls-5" x="167.61" y="152.6" width="15.86" height="15.46"/><rect class="cls-4" x="152.59" y="168.06" width="15.02" height="16.06"/><rect class="cls-2" x="135.95" y="168.06" width="16.64" height="16.06"/><rect class="cls-3" x="167.61" y="168.06" width="15.86" height="16.06"/><rect class="cls-2" x="121.05" y="184.12" width="15.03" height="16.26"/><rect class="cls-3" x="121.05" y="216.44" width="15.03" height="15.24"/><polygon class="cls-5" points="152.72 200.16 152.72 200.38 136.08 200.38 136.08 184.12 152.59 184.12 152.59 200.16 152.72 200.16"/><rect class="cls-4" x="121.05" y="200.38" width="15.03" height="16.06"/><rect class="cls-2" x="105.22" y="200.38" width="15.83" height="16.06"/><rect class="cls-3" x="136.08" y="200.38" width="16.64" height="16.06"/><rect class="cls-2" x="90.17" y="216.44" width="15.03" height="15.46"/><rect class="cls-3" x="90.17" y="247.96" width="15.03" height="16.05"/><rect class="cls-5" x="105.2" y="216.44" width="15.85" height="15.46"/><rect class="cls-4" x="90.17" y="231.9" width="15.03" height="16.06"/><rect class="cls-2" x="73.55" y="231.9" width="16.63" height="16.06"/><rect class="cls-3" x="105.2" y="231.9" width="15.85" height="16.06"/><rect class="cls-2" x="58.5" y="247.96" width="15.03" height="16.26"/><rect class="cls-3" x="58.5" y="280.29" width="15.03" height="15.24"/><rect class="cls-6" x="42.67" y="280.29" width="15.83" height="15.24"/><rect class="cls-5" x="73.53" y="247.96" width="16.64" height="16.26"/><rect class="cls-4" x="58.5" y="264.22" width="15.03" height="16.06"/><rect class="cls-2" x="42.67" y="264.22" width="15.83" height="16.06"/><rect class="cls-3" x="73.53" y="264.22" width="16.64" height="16.06"/><rect class="cls-7" x="230.39" y="72.55" width="15.7" height="15.75"/><rect class="cls-8" x="214.64" y="72.55" width="15.69" height="15.75"/><rect class="cls-9" x="230.39" y="120.55" width="15.7" height="15.76"/><rect class="cls-10" x="230.39" y="104.46" width="15.7" height="15.7"/><rect class="cls-11" x="230.39" y="88.7" width="15.7" height="15.69"/><rect class="cls-8" x="246.48" y="104.46" width="15.77" height="15.7"/><rect class="cls-12" x="246.48" y="72.55" width="15.77" height="15.75"/><rect class="cls-13" x="246.48" y="88.7" width="15.77" height="15.69"/><rect class="cls-14" x="246.48" y="120.55" width="15.77" height="15.76"/><rect class="cls-15" x="214.64" y="120.55" width="15.69" height="15.76"/><rect class="cls-16" x="214.64" y="104.46" width="15.69" height="15.7"/><rect class="cls-10" x="214.64" y="88.7" width="15.69" height="15.69"/><rect class="cls-17" x="198.49" y="72.55" width="15.75" height="15.75"/><rect class="cls-9" x="198.49" y="88.7" width="15.75" height="15.69"/><rect class="cls-7" x="198.49" y="104.46" width="15.75" height="15.7"/><rect class="cls-18" x="198.49" y="120.55" width="15.75" height="15.76"/><rect class="cls-19" x="118.74" y="57.44" width="15.55" height="15.02"/><rect class="cls-20" x="150.69" y="41.19" width="15.7" height="16.25"/><rect class="cls-21" x="150.69" y="72.46" width="15.7" height="16.25"/><rect class="cls-22" x="150.69" y="57.44" width="15.7" height="15.02"/><rect class="cls-20" x="166.39" y="41.19" width="15.69" height="16.25"/><rect class="cls-21" x="166.39" y="72.46" width="15.69" height="16.25"/><rect class="cls-23" x="166.39" y="57.44" width="15.69" height="15.02"/><rect class="cls-20" x="182.08" y="41.19" width="15.7" height="16.25"/><rect class="cls-21" x="182.08" y="72.46" width="15.7" height="16.25"/><rect class="cls-23" x="182.08" y="57.44" width="15.7" height="15.02"/><rect class="cls-24" x="198" y="41.19" width="16.17" height="16.25"/><rect class="cls-25" x="198" y="72.46" width="16.17" height="16.25"/><rect class="cls-26" x="198" y="57.44" width="16.17" height="15.02"/><rect class="cls-27" x="134.29" y="41.19" width="16.4" height="16.25"/><rect class="cls-28" x="134.29" y="72.46" width="16.4" height="16.25"/><rect class="cls-29" x="134.29" y="57.44" width="16.4" height="15.02"/><polygon class="cls-24" points="294 136.64 278.18 136.64 278.18 120.56 261.93 120.56 261.93 120.55 294 120.55 294 136.64"/><rect class="cls-30" x="261.93" y="120.56" width="16.25" height="16.08"/><rect class="cls-31" x="246.48" y="120.55" width="15.45" height="16.09"/><rect class="cls-24" x="278.24" y="183.55" width="15.82" height="15.36"/><rect class="cls-32" x="261.99" y="183.55" width="16.25" height="15.36"/><rect class="cls-24" x="246.54" y="183.55" width="15.45" height="15.36"/><rect class="cls-24" x="278.24" y="168.64" width="15.82" height="14.98"/><rect class="cls-33" x="261.99" y="168.64" width="16.25" height="14.98"/><rect class="cls-24" x="246.54" y="168.64" width="15.45" height="14.98"/><rect class="cls-24" x="278.18" y="152.88" width="15.82" height="15.7"/><rect class="cls-34" x="261.93" y="152.88" width="16.25" height="15.7"/><rect class="cls-24" x="246.48" y="152.88" width="15.45" height="15.7"/><rect class="cls-24" x="278.18" y="136.72" width="15.82" height="16.08"/><rect class="cls-34" x="261.93" y="136.72" width="16.25" height="16.08"/><rect class="cls-24" x="246.48" y="136.72" width="15.45" height="16.08"/><rect class="cls-35" x="261.99" y="198.91" width="16.25" height="15.55"/></svg>